<svg width="1000" height="1000" viewBox="0 0 1000 1000" fill="none" xmlns="http://www.w3.org/2000/svg">
<path d="M745.99 499.147L501.115 311.703L254.01 500.853L498.886 688.297L745.99 499.147Z" fill="#ea6ca7"/>
<path fill-rule="evenodd" clip-rule="evenodd" d="M450.755 16.1431C478.874 -5.38098 518.897 -5.38105 547.016 16.143L969.006 339.162C1007.36 368.52 1007.36 424.195 969.007 453.552L909.442 499.147L971.236 546.448C1009.59 575.805 1009.59 631.48 971.236 660.838L549.245 983.857C521.127 1005.38 481.103 1005.38 452.984 983.857L30.9936 660.838C-7.35881 631.48 -7.35893 575.806 30.9935 546.448L90.5583 500.853L28.7644 453.552C-9.58808 424.195 -9.58814 368.52 28.7643 339.162L450.755 16.1431ZM498.885 104.418L880.274 396.357L745.99 499.147L882.503 603.643L501.115 895.582L119.727 603.643L254.01 500.853L117.497 396.357L498.885 104.418Z" fill="#ea6ca7"/>
</svg>
